<svg width="230" height="58" viewBox="0 0 230 58" fill="none" xmlns="http://www.w3.org/2000/svg">
<path d="M0 0.84978H14.8375C17.0801 0.84978 19.1526 1.24681 21.0448 2.05087C22.937 2.85493 24.5689 3.93696 25.9506 5.30684C27.3322 6.67672 28.4135 8.29479 29.2044 10.1709C29.9953 12.0471 30.3858 14.0423 30.3858 16.1468C30.3858 18.2512 29.9953 20.2464 29.2044 22.1225C28.4135 23.9987 27.3322 25.6167 25.9506 26.9866C24.5689 28.3565 22.927 29.4385 21.0147 30.2426C19.1025 31.0467 17.02 31.4437 14.7774 31.4437H8.21968V43.6336H0V0.839844V0.84978ZM8.21968 8.41389V23.8895H14.2468C15.4282 23.8895 16.4994 23.6811 17.4706 23.2741C18.4317 22.8671 19.2627 22.3112 19.9535 21.6065C20.6443 20.9017 21.1749 20.0776 21.5454 19.1445C21.9158 18.2114 22.106 17.209 22.106 16.1567C22.106 15.1045 21.9158 14.1019 21.5454 13.1688C21.1749 12.2357 20.6343 11.4117 19.9535 10.7069C19.2627 10.0021 18.4317 9.44627 17.4706 9.03927C16.5094 8.63228 15.4282 8.42382 14.2468 8.42382H8.21968V8.41389Z" fill="#383E42"/>
<path d="M46.194 44.2305C44.6222 44.2305 42.9903 43.9129 41.3183 43.2974C39.6463 42.6721 38.1145 41.7389 36.7329 40.4881C35.3513 39.2374 34.2099 37.6591 33.3089 35.7433C32.3978 33.8274 31.9473 31.584 31.9473 29.003C31.9473 26.4221 32.3778 24.1786 33.2488 22.2628C34.1198 20.3469 35.2411 18.7587 36.6228 17.4881C38.0044 16.2175 39.5462 15.2843 41.2682 14.6788C42.9803 14.0733 44.6722 13.7656 46.3242 13.7656C48.2565 13.7656 49.9585 14.0832 51.4402 14.7285C52.922 15.3737 54.1534 16.2076 55.1346 17.2201V14.3513H63.2341V43.6647H55.1346V40.3988C55.1346 40.3988 55.1346 40.3988 55.1246 40.3988C54.1434 41.5304 52.8919 42.4537 51.3802 43.1684C49.8584 43.893 48.1363 44.2504 46.2041 44.2504L46.194 44.2305ZM47.7959 36.8451C48.8972 36.8451 49.9184 36.6366 50.8395 36.2297C51.7606 35.8227 52.5615 35.2568 53.2323 34.5321C53.9031 33.8075 54.4237 32.9737 54.7942 32.0108C55.1646 31.0579 55.3548 30.0255 55.3548 28.9336C55.3548 27.8417 55.1646 26.8092 54.7942 25.8562C54.4237 24.9033 53.8931 24.0694 53.2323 23.3646C52.5615 22.6598 51.7606 22.104 50.8395 21.697C49.9084 21.29 48.8972 21.0816 47.7959 21.0816C46.6946 21.0816 45.6534 21.2801 44.6923 21.6672C43.7211 22.0543 42.8902 22.6003 42.1793 23.3051C41.4685 24.0099 40.9078 24.8438 40.4973 25.7967C40.0868 26.7596 39.8766 27.8019 39.8766 28.9336C39.8766 30.0652 40.0868 31.1174 40.4973 32.0703C40.9078 33.0332 41.4685 33.8571 42.1793 34.5619C42.8902 35.2667 43.7211 35.8227 44.6923 36.2297C45.6534 36.6366 46.6946 36.8451 47.7959 36.8451Z" fill="#383E42"/>
<path d="M153.07 0.847656H161.17V43.6415H153.07V0.847656Z" fill="#383E42"/>
<path d="M179.133 44.2305C177.562 44.2305 175.93 43.9129 174.258 43.2974C172.586 42.6721 171.054 41.7389 169.672 40.4881C168.291 39.2374 167.149 37.6591 166.248 35.7433C165.337 33.8274 164.887 31.584 164.887 29.003C164.887 26.4221 165.317 24.1786 166.188 22.2628C167.059 20.3469 168.181 18.7587 169.562 17.4881C170.944 16.2175 172.486 15.2843 174.208 14.6788C175.92 14.0733 177.612 13.7656 179.264 13.7656C181.196 13.7656 182.898 14.0832 184.38 14.7285C185.861 15.3737 187.093 16.2076 188.074 17.2201V14.3513H196.174V43.6647H188.074V40.3988C188.074 40.3988 188.074 40.3988 188.064 40.3988C187.083 41.5304 185.831 42.4537 184.32 43.1684C182.798 43.893 181.076 44.2504 179.144 44.2504L179.133 44.2305ZM180.725 36.8451C181.827 36.8451 182.848 36.6366 183.769 36.2297C184.69 35.8227 185.491 35.2568 186.162 34.5321C186.833 33.8075 187.353 32.9737 187.724 32.0108C188.094 31.0579 188.284 30.0255 188.284 28.9336C188.284 27.8417 188.094 26.8092 187.724 25.8562C187.353 24.9033 186.823 24.0694 186.162 23.3646C185.491 22.6598 184.69 22.104 183.769 21.697C182.838 21.29 181.827 21.0816 180.725 21.0816C179.624 21.0816 178.583 21.2801 177.622 21.6672C176.651 22.0543 175.82 22.6003 175.109 23.3051C174.398 24.0099 173.837 24.8438 173.427 25.7967C173.016 26.7596 172.806 27.8019 172.806 28.9336C172.806 30.0652 173.016 31.1174 173.427 32.0703C173.837 33.0332 174.398 33.8571 175.109 34.5619C175.82 35.2667 176.651 35.8227 177.622 36.2297C178.583 36.6366 179.624 36.8451 180.725 36.8451Z" fill="#383E42"/>
<path d="M210.787 42.355L199.023 14.332H207.533L214.802 32.3887L221.6 14.332H230L212.86 57.1855H204.76L210.787 42.355Z" fill="#383E42"/>
<path d="M120.093 14.3438H110.792L98.668 28.9955L110.792 43.6473H120.093L107.969 28.9955L120.093 14.3438Z" fill="#383E42"/>
<path d="M98.6679 0.847656H90.5684V43.6415H98.6679V0.847656Z" fill="#383E42"/>
<path d="M134.169 13.7578C125.679 13.7578 118.801 20.5774 118.801 28.9952C118.801 37.413 125.679 44.2326 134.169 44.2326C142.659 44.2326 149.537 37.413 149.537 28.9952C149.537 20.5774 142.659 13.7578 134.169 13.7578ZM134.169 36.3807C130.054 36.3807 126.72 33.0751 126.72 28.9952C126.72 24.9154 130.054 21.6098 134.169 21.6098C138.284 21.6098 141.618 24.9154 141.618 28.9952C141.618 33.0751 138.284 36.3807 134.169 36.3807Z" fill="#383E42"/>
<path d="M83.9393 14.3438C81.9269 14.3438 80.255 14.7607 78.9134 15.6045C77.5718 16.4482 76.5306 17.6294 75.7797 19.1482V14.3438H67.7402V43.6572H75.8398V27.6256C75.8398 24.598 78.3127 22.1461 81.3663 22.1461H87.1931V14.3537H83.9393V14.3438Z" fill="#383E42"/>
<path d="M134.17 58.0019C133.92 58.0019 133.67 57.9027 133.49 57.724L124.108 48.4227C123.778 48.0952 123.738 47.5789 124.008 47.2017C124.189 46.9436 124.489 46.8047 124.789 46.8047C124.929 46.8047 125.08 46.8344 125.22 46.9039C128.023 48.2937 131.037 48.9885 134.18 48.9885C137.324 48.9885 140.328 48.2837 143.141 46.9039C143.281 46.8344 143.421 46.8047 143.571 46.8047C143.872 46.8047 144.162 46.9436 144.352 47.2017C144.623 47.5789 144.583 48.0952 144.252 48.4227L134.871 57.724C134.691 57.9027 134.451 58.0019 134.19 58.0019H134.17Z" fill="#00B7C8"/>
<path d="M143.56 11.1973C143.419 11.1973 143.269 11.1674 143.129 11.0979C140.326 9.7082 137.312 9.01336 134.169 9.01336C131.025 9.01336 128.021 9.71813 125.208 11.0979C125.068 11.1674 124.928 11.1973 124.778 11.1973C124.477 11.1973 124.187 11.0583 123.997 10.8002C123.726 10.423 123.766 9.90683 124.097 9.57925L133.478 0.277975C133.658 0.0992956 133.898 0 134.159 0C134.409 0 134.659 0.0992956 134.839 0.277975L144.22 9.57925C144.551 9.90683 144.591 10.423 144.321 10.8002C144.14 11.0583 143.84 11.1973 143.54 11.1973H143.56Z" fill="#00B7C8"/>
</svg>
